<svg xmlns="http://www.w3.org/2000/svg" viewBox="0 0 85.54 90.57"><g data-name="Layer 2" fill="none" stroke="#901920" stroke-width="2"><path d="M51.06 23.47V9.06h13.12a20.19 20.19 0 006.07 14.22 20.13 20.13 0 0014.29 5.9v13a33.46 33.46 0 01-20.33-6.89v1.11c0 9.74.26 19.48 0 29.2a24.77 24.77 0 01-23.49 23.84 5.16 5.16 0 00-.77.13h-1.57A31.49 31.49 0 0130 87.85a24.84 24.84 0 014.42-47.74 24.67 24.67 0 018.4-.12v13.23a22.21 22.21 0 00-3.5-.51 11.89 11.89 0 10.31 23.77C46.15 76.22 51 70.94 51 64.12V37.58" stroke-miterlimit="10"/><path d="M28.51 32.75L8 27.88a9.15 9.15 0 114.23-17.81l2.66.63.68-2.7a9.15 9.15 0 0117.81 4.23z" stroke-linecap="round" stroke-linejoin="round"/></g></svg>