<svg xmlns="http://www.w3.org/2000/svg" viewBox="0 0 78.06 90.72"><defs><style>.cls-1{fill:none;stroke:#901920;stroke-linecap:round;stroke-linejoin:round;stroke-width:2px}</style></defs><g id="Layer_2" data-name="Layer 2"><g id="Layer_2-2" data-name="Layer 2"><path class="cls-1" d="M60.58 24.1h7.14a9.34 9.34 0 019.34 9.33V70.5a9.34 9.34 0 01-9.34 9.34H10.34A9.34 9.34 0 011 70.5V33.43a9.34 9.34 0 019.34-9.33M1 63.64h76.06"/><circle cx="39.03" cy="71.33" r="2.68"/><circle cx="23.82" cy="6.73" r="1.89"/><circle cx="29.59" cy="6.73" r="1.89"/><circle cx="35.35" cy="6.73" r="1.89"/><path class="cls-1" d="M39.03 79.84v9.88m-12.77 0H51.8"/><rect class="cls-1" x="17.47" y="1" width="43.11" height="53.34" rx="3.75" ry="3.75"/><path class="cls-1" d="M17.47 13.36h43.11M25.71 39.3h27.8m-30.89 4.95h27.8m-22.13 4.94h27.8M32.4 21l-3.81 4.22 4.32 3.71m12.04 3.55l3.81-4.22-4.32-3.71m-2.7-6.71l-6.66 16.98"/></g></g></svg>