<svg xmlns="http://www.w3.org/2000/svg" viewBox="0 0 91.53 88.86"><defs><style>.cls-1{fill:none;stroke:#901920;stroke-linecap:round;stroke-linejoin:round;stroke-width:2px}</style></defs><g id="Layer_2" data-name="Layer 2"><g id="Layer_2-2" data-name="Layer 2"><path class="cls-1" d="M1 87.86V80l14-10.04 10.05 12.17-3.66 5.73H1zm15.19-17a41.45 41.45 0 017.44-10.63 5.64 5.64 0 012.47-1.75c1.92-.54 3.84.85 5.13 2.37s2.38 3.34 4.19 4.18a4.61 4.61 0 01-3.76 2 4.37 4.37 0 01-3.45-2.33"/><path class="cls-1" d="M28.02 58.52l7.4-2.87-11.9-16.13 23.14-28.61L70.7 46.99l-35.28 8.66M19.26 44.09l-4.56 5.78 8.93 10.36"/><path class="cls-1" d="M17.02 52.56l-2.94 3.7 4.22 4.8 4.44-1.86m36.48-46.18L66 1m4.7 19.72l13.46-7.7M76.1 34.37l14.43-2.39M37.78 58.74l-2.36-3.09m-3.76 11.4l13.41 18.1 8.51-5.72-2.04-3.2M34.41 62.94L39.77 57a2.63 2.63 0 013.71-.19 2.63 2.63 0 01.18 3.71l-5.36 5.94a2.63 2.63 0 01-3.71.19"/><rect class="cls-1" x="43.01" y="60.78" width="5.25" height="13.24" rx="2.63" ry="2.63" transform="rotate(42.14 45.636 67.388)"/><rect class="cls-1" x="47.34" y="67.5" width="5.25" height="13.24" rx="2.63" ry="2.63" transform="rotate(57.16 49.968 74.114)"/><path class="cls-1" d="M41.47 80.47q-8.19.93-16.47 1.27"/></g></g></svg>