<svg width="16" height="16" fill="none" xmlns="http://www.w3.org/2000/svg"><path fill-rule="evenodd" clip-rule="evenodd" d="M4.702.048C5.555.008 5.827 0 8 0s2.445.01 3.297.048c.853.039 1.435.175 1.944.372a3.936 3.936 0 011.417.923c.407.4.72.882.922 1.416.197.51.333 1.091.372 1.942.04.855.048 1.127.048 3.299 0 2.173-.01 2.445-.048 3.298-.038.851-.175 1.433-.372 1.942a3.925 3.925 0 01-.922 1.418c-.4.407-.884.72-1.417.922-.51.197-1.091.333-1.942.372-.854.04-1.126.048-3.299.048s-2.445-.01-3.298-.048c-.851-.038-1.433-.175-1.942-.372a3.924 3.924 0 01-1.417-.922A3.922 3.922 0 01.42 13.24c-.197-.51-.333-1.091-.372-1.942C.008 10.444 0 10.172 0 8c0-2.173.01-2.445.048-3.297.039-.853.175-1.435.372-1.944a3.924 3.924 0 01.923-1.416C1.743.936 2.226.62 2.76.42 3.27.223 3.85.087 4.701.048zm6.53 1.44c-.843-.039-1.096-.047-3.232-.047s-2.39.008-3.233.047c-.78.036-1.203.166-1.486.276-.373.145-.64.317-.92.597a2.48 2.48 0 00-.597.92c-.11.283-.24.706-.276 1.486-.039.844-.047 1.097-.047 3.233s.008 2.39.047 3.233c.036.78.166 1.203.276 1.486.128.347.332.661.597.92.259.265.574.47.92.597.283.11.706.24 1.486.276.844.038 1.096.046 3.233.046s2.39-.008 3.233-.046c.78-.036 1.203-.166 1.486-.276a2.48 2.48 0 00.92-.598c.265-.258.47-.572.597-.92.11-.282.24-.705.276-1.485.038-.844.046-1.097.046-3.233s-.008-2.39-.046-3.233c-.036-.78-.166-1.203-.276-1.486a2.485 2.485 0 00-.598-.92 2.481 2.481 0 00-.92-.597c-.282-.11-.705-.24-1.485-.276zm-4.254 8.978a2.669 2.669 0 10.76-5.122 2.669 2.669 0 00-.76 5.122zM5.092 5.092a4.112 4.112 0 115.816 5.816 4.112 4.112 0 01-5.816-5.816zm7.932-.592a.973.973 0 10-1.335-1.415.973.973 0 001.335 1.415z" fill="#fff"/></svg>