<svg xmlns="http://www.w3.org/2000/svg" fill="#fff" viewBox="0 0 41.79 55.27"><g data-name="Layer 2"><g data-name="Layer 1"><path d="M16.9 55.27V43.31h1.8a11.64 11.64 0 00.05-1.66L15.09 38l-6.27-6.25a2.73 2.73 0 00-.35-.33 4.11 4.11 0 01.11-6.72l.2-.16c0-.19-.14-.26-.23-.36l-7.48-7.47a3.08 3.08 0 010-4.7q4.83-4.75 9.57-9.54c.55-.55 1.11-1.08 1.65-1.64A4.59 4.59 0 0113.77 0H15a5 5 0 012.19 1.49c1 1.07 2.11 2.12 3.16 3.18.14.13.25.3.45.36a4 4 0 014.75-1A4.07 4.07 0 0128 8.3a4.21 4.21 0 013.4 1.21 4.16 4.16 0 011.2 3.4 4.25 4.25 0 013.4 1.21 4.33 4.33 0 011.2 3.37 4.2 4.2 0 013.22 7.29 3.35 3.35 0 011.38 2.66A3.51 3.51 0 0140.42 30c2.18 3.88 1.76 7.36-1.36 10.5v2.77h1.8v12zM11 24h9a4.06 4.06 0 012.57.81 4.16 4.16 0 011.49 4.58 4.23 4.23 0 01-3.9 2.9 3.23 3.23 0 00-.82 0 .35.35 0 00.15.26l6.91 6.91a1.23 1.23 0 002 0l11-11a1.25 1.25 0 000-2q-4.51-4.53-9-9l-9.59-9.68-2-2-13 13zm28.08 7.5c-.24 0-.32.18-.43.29-2.95 3-5.94 5.87-8.84 8.87a3.23 3.23 0 01-4.8 0c-1.94-2-4-4-5.94-6-.81-.82-1.6-1.65-2.34-2.41h-4.56l8.44 8.61v2.35h16.57v-3.59a6.1 6.1 0 002.59-3.7 5.72 5.72 0 00-.69-4.42zM17.35 4.26c-.61-.6-1.25-1.2-1.87-1.82a1.3 1.3 0 00-2.17 0L9.87 5.85l-7.44 7.44c-.8.81-.79 1.4 0 2.21.53.51 1 1 1.57 1.56.1.1.17.23.29.23zM31.58 53.4a3.52 3.52 0 00.06-1.07 16.92 16.92 0 00-.1-3 5.07 5.07 0 00-5-4.17h-7.39c-.12 0-.25 0-.38.09v8.15zm-16.09-23h4.67a2.29 2.29 0 002.3-2.3 2.24 2.24 0 00-2.19-2.29h-9.34a2.21 2.21 0 00-1.52.6 2.3 2.3 0 001.52 4c1.5.01 3.07-.01 4.56-.01zM39 53.42v-8.24h-7.7l.29.33A6.78 6.78 0 0133.47 50v2.8c0 .19-.06.4.11.58zM22.1 6.32l3.21 3.24a2.15 2.15 0 00.74-2.26 2.28 2.28 0 00-3.95-1zm13.78 14l2.86 2.81a.88.88 0 00.34.26 2.12 2.12 0 00.8-2.24A2.37 2.37 0 0038 19.37a2.1 2.1 0 00-2.12.93zm-5.94-6.16a2.13 2.13 0 00.71-2.25 2.29 2.29 0 00-3.94-1zm4.59 4.65a2.26 2.26 0 00.69-2.4 2.28 2.28 0 00-3.93-.84z"/><path d="M34.4 30.42a3.68 3.68 0 11-3.64-3.7 3.71 3.71 0 013.64 3.7zm-3.67-1.85a1.83 1.83 0 00-1.84 1.8 1.84 1.84 0 103.67.06 1.83 1.83 0 00-1.83-1.86zM11.37 8.21a1 1 0 01-.32.78c-.57.57-1.14 1.15-1.72 1.71a.91.91 0 11-1.28-1.29c.58-.6 1.16-1.18 1.75-1.75a.84.84 0 011-.22.9.9 0 01.57.77zM29.79 49.3a3.18 3.18 0 01-3.23 3.2 3.22 3.22 0 010-6.43 3.19 3.19 0 013.23 3.23zm-3.22-1.38a1.37 1.37 0 100 2.73 1.37 1.37 0 000-2.73z"/></g></g></svg>